<?xml version="1.0" encoding="iso-8859-1"?>
<!-- Generator: Adobe Illustrator 21.0.2, SVG Export Plug-In . SVG Version: 6.00 Build 0)  -->
<svg xmlns="http://www.w3.org/2000/svg" xmlns:xlink="http://www.w3.org/1999/xlink" version="1.1" id="Layer_1" x="0px" y="0px" viewBox="0 0 40 40" style="enable-background:new 0 0 40 40;" xml:space="preserve">
<g>
	<polygon style="fill:#B6DCFE;" points="1.5,30.662 1.5,21.617 20.014,8.602 38.5,20.41 38.5,30.662 20,38.458  "/>
	<path style="fill:#4788C7;" d="M20.027,9.204L38,20.684v9.646l-18,7.585L2,30.33v-8.453L20.027,9.204 M20,8L1,21.357v9.636L20,39   l19-8.007V20.136L20,8L20,8z"/>
</g>
<polygon style="fill:#DFF0FE;" points="20,22.459 1.5,30.109 1.5,9.338 20,1.542 38.5,9.338 38.5,30.109 "/>
<polygon style="fill:#FFFFFF;" points="38,9.667 20,2.084 20,22.551 38,30 "/>
<g>
	<polygon style="fill:#98CCFD;" points="24.5,23.872 24.5,8.753 33.5,12.539 33.5,27.597  "/>
	<path style="fill:#4788C7;" d="M25,9.506l8,3.366v13.977l-8-3.311V9.506 M24,8v16.206l10,4.139V12.207L24,8L24,8z"/>
</g>
<g>
	<polygon style="fill:#98CCFD;" points="7.5,13.12 15.5,9.562 15.5,18.023 7.5,21.507  "/>
	<g>
		<path style="fill:#4788C7;" d="M15,10.331v7.364l-7,3.049v-7.3L15,10.331 M16,8.792l-9,4.003v9.476l9-3.92V8.792L16,8.792z"/>
	</g>
</g>
<circle style="fill:#4788C7;" cx="31.5" cy="19.5" r="0.5"/>
<polygon style="fill:#4788C7;" points="20,1 1,9.007 1,30.857 2,30.444 2,29.361 2,20 2,9.67 20,2.085 38,9.67 38,20 38,29.361   38,30.444 39,30.857 39,9.007 "/>
</svg>
