<?xml version="1.0" encoding="utf-8"?>
<!-- Generator: Adobe Illustrator 22.0.1, SVG Export Plug-In . SVG Version: 6.00 Build 0)  -->
<svg version="1.1" id="Layer_1" xmlns="http://www.w3.org/2000/svg" xmlns:xlink="http://www.w3.org/1999/xlink" x="0px" y="0px"
	 viewBox="0 0 1792 1792" style="enable-background:new 0 0 1792 1792;" xml:space="preserve">
<style type="text/css">
	.st0{fill:#2980B9;}
</style>
<path class="st0" d="M429.6,1074.9c0-32.9-11.4-61-34.2-84.3s-50.3-34.9-82.4-34.9s-59.7,11.6-82.4,34.9s-34.2,51.4-34.2,84.3
	s11.4,61,34.2,84.3s50.3,34.9,82.4,34.9s59.7-11.6,82.4-34.9C418.2,1136,429.6,1107.9,429.6,1074.9z M604.5,657.4
	c0-32.9-11.4-61-34.2-84.3s-50.3-34.9-82.4-34.9s-59.7,11.6-82.4,34.9c-22.8,23.3-34.2,51.4-34.2,84.3s11.4,61,34.2,84.3
	c22.8,23.3,50.3,34.9,82.4,34.9s59.7-11.6,82.4-34.9C593.1,718.5,604.5,690.3,604.5,657.4z M994.4,1105.7l92-356
	c3.6-16.2,1.4-31.2-6.8-45.2c-8.2-14-19.9-23.1-35.1-27.5c-15.2-4.3-29.8-2.3-43.7,6.1c-14,8.4-23.1,20.7-27.3,36.8l-92,356
	c-36.4,3.1-68.9,16.6-97.5,40.5c-28.5,23.9-47.7,54.5-57.4,91.8c-12.1,47.8-6.1,93.2,18.2,136.1s59.8,70.5,106.6,82.9
	s91.1,6.2,133-18.6c41.9-24.8,68.9-61.2,81.1-109c9.7-37.3,7.9-73.6-5.5-109C1046.6,1155.1,1024.7,1126.8,994.4,1105.7z
	 M1595.6,1074.9c0-32.9-11.4-61-34.2-84.3c-22.8-23.3-50.3-34.9-82.4-34.9s-59.7,11.6-82.4,34.9c-22.8,23.3-34.2,51.4-34.2,84.3
	s11.4,61,34.2,84.3c22.8,23.3,50.2,34.9,82.4,34.9s59.7-11.6,82.4-34.9C1584.2,1136,1595.6,1107.9,1595.6,1074.9z M1012.6,478.5
	c0-32.9-11.4-61-34.2-84.3s-50.3-34.9-82.4-34.9s-59.7,11.6-82.4,34.9c-22.8,23.3-34.2,51.4-34.2,84.3s11.4,61,34.2,84.3
	s50.3,34.9,82.4,34.9s59.7-11.6,82.4-34.9C1001.2,539.5,1012.6,511.4,1012.6,478.5z M1420.7,657.4c0-32.9-11.4-61-34.2-84.3
	c-22.8-23.3-50.2-34.9-82.4-34.9s-59.7,11.6-82.4,34.9s-34.2,51.4-34.2,84.3s11.4,61,34.2,84.3c22.8,23.3,50.3,34.9,82.4,34.9
	s59.7-11.6,82.4-34.9C1409.3,718.5,1420.7,690.3,1420.7,657.4z M1712.1,1074.9c0,162.2-42.8,312.2-128.4,450.1
	c-11.5,18-27.9,27-49.2,27h-1277c-21.3,0-37.6-9-49.2-27c-85.6-137.3-128.4-287.4-128.4-450.1c0-113.1,21.6-221.2,64.7-324.3
	s101.1-192,174-266.5s159.7-133.9,260.5-178s206.5-66.2,317-66.2s216.2,22.1,317,66.2s187.6,103.4,260.5,178s130.9,163.4,174,266.5
	C1690.6,853.8,1712.1,961.9,1712.1,1074.9z"/>
</svg>
