<?xml version="1.0" encoding="utf-8"?>
<!-- Generator: Adobe Illustrator 22.0.1, SVG Export Plug-In . SVG Version: 6.00 Build 0)  -->
<svg version="1.1" id="Layer_1" xmlns="http://www.w3.org/2000/svg" xmlns:xlink="http://www.w3.org/1999/xlink" x="0px" y="0px"
	 viewBox="0 0 135 135" style="enable-background:new 0 0 135 135;" xml:space="preserve">
<style type="text/css">
	.st0{fill:#FFFFFF;}
</style>
<g transform="translate(0.000000,135.000000) scale(0.100000,-0.100000)">
	<path d="M493,1226c-178-43-335-205-372-384c-36-171,14-338,139-462c89-89,222-150,327-150h33v54v54l-55,7c-75,9-183,65-235,121
		c-23,25-56,75-73,112c-28,60-32,77-32,158c0,84,3,95,37,166c147,297,555,302,702,8c19-39,38-94,41-125l7-55h54c53,0,54,0,54,30
		c0,109-59,239-150,330C843,1217,665,1267,493,1226z"/>
	<path d="M557,1009c-132-32-221-142-220-274c0-141,99-254,246-279l37-7v61c0,59,0,60-29,60c-36,0-89,36-118,79c-32,47-32,125,0,172
		c72,107,212,107,284,0c13-19,23-47,23-62c0-29,1-29,60-29h61l-7,38c-11,62-43,127-82,165C746,997,638,1029,557,1009z"/>
	<path d="M577,772c-33-36-8-92,40-92c25,0,53,30,53,57C670,783,608,806,577,772z M638,737c4-20-25-34-40-19s-1,44,19,40
		C627,756,636,747,638,737z"/>
	<path d="M797,552l-67-68V313c0-166,1-172,22-187c19-13,58-16,231-16c278,0,257-21,257,257c0,173-3,212-16,231c-15,21-21,22-187,22
		H864L797,552z"/>
	<path d="M887,462c-23-25-24-158-1-190c14-20,24-22,99-22c73,0,86,3,95,19c14,28,13,184-2,199c-7,7-43,12-93,12
		C918,480,900,477,887,462z M1070,365v-85h-85h-85v85v85h85h85V365z"/>
</g>
<rect x="90" y="90" class="st0" width="17" height="17"/>
</svg>
